# AST/ASF file generated using VICON BodyLanguage
# -----------------------------------------------
:version 1.10
:name VICON
:units
  mass 1.0
  length 0.45
  angle deg
:documentation
   .ast/.asf automatically generated from VICON data using
   VICON BodyBuilder and BodyLanguage model FoxedUp or BRILLIANT.MOD
:root
   order TX TY TZ RX RY RZ
   axis XYZ
   position 0 0 0  
   orientation 0 0 0 
:bonedata
  begin
     id 1 
     name lhipjoint
     direction 0.711131 -0.61297 0.344326 
     length 2.29162 
     axis 0 0 0  XYZ
  end
  begin
     id 2 
     name lfemur
     direction 0.34202 -0.939693 0  
     length 6.71424  
     axis 0 0 20  XYZ
    dof rx ry rz
    limits (-160.0 20.0)
           (-70.0 70.0)
           (-60.0 70.0)
  end
  begin
     id 3 
     name ltibia
     direction 0.34202 -0.939693 0   
     length 6.7087   
     axis 0 0 20   XYZ
    dof rx
    limits (-10.0 170.0)
  end
  begin
     id 4 
     name lfoot
     direction 0.0230374 -0.0632947 0.997729   
     length 1.56743   
     axis -90 7.62852e-016 20   XYZ
    dof rx rz
    limits (-45.0 90.0)
           (-70.0 20.0)
  end
  begin
     id 5 
     name ltoes
     direction 1.53585e-011 -4.21885e-011 1   
     length 0.802914   
     axis -90 7.62852e-016 20   XYZ
    dof rx
    limits (-90.0 20.0)
  end
  begin
     id 6 
     name rhipjoint
     direction -0.733192 -0.592884 0.333043   
     length 2.36925  
     axis 0 0 0  XYZ 
  end
  begin
     id 7 
     name rfemur
     direction -0.34202 -0.939693 0   
     length 6.67027   
     axis 0 0 -20   XYZ
    dof rx ry rz
    limits (-160.0 20.0)
           (-70.0 70.0)
           (-70.0 60.0)
  end
  begin
     id 8 
     name rtibia
     direction -0.34202 -0.939693 0   
     length 6.6862   
     axis 0 0 -20   XYZ
    dof rx
    limits (-10.0 170.0)
 end
 begin
     id 9 
     name rfoot
     direction -0.0949739 -0.260939 0.960672   
     length 1.67698  
     axis -90 -7.62852e-016 -20   XYZ
    dof rx rz
    limits (-45.0 90.0)
           (-20.0 70.0)
  end
  begin
     id 10 
     name rtoes
     direction -1.5353e-011 -4.21868e-011 1   
     length 0.846298   
     axis -90 -7.62852e-016 -20   XYZ
    dof rx
    limits (-90.0 20.0)
  end
  begin
     id 11 
     name lowerback
     direction -0.0206828 0.999785 -0.00109866   
     length 2.04382   
     axis 0 0 0   XYZ
    dof rx ry rz
    limits (-20.0 45.0)
           (-30.0 30.0)
           (-30.0 30.0)
  end
  begin
     id 12 
     name upperback
     direction -0.0105003 0.999727 -0.0208904   
     length 2.04538   
     axis 0 0 0   XYZ
    dof rx ry rz
    limits (-20.0 45.0)
           (-30.0 30.0)
           (-30.0 30.0)
  end
  begin
     id 13 
     name thorax
     direction -0.000416255 0.999808 -0.0196023   
     length 2.0399   
     axis 0 0 0   XYZ
    dof rx ry rz
    limits (-20.0 45.0)
           (-30.0 30.0)
           (-30.0 30.0)
  end
  begin
     id 14 
     name lowerneck
     direction 0.0627861 0.989205 0.13241   
     length 1.46207   
     axis 0 0 0   XYZ
    dof rx ry rz
    limits (-20.0 45.0)
           (-30.0 30.0)
           (-30.0 30.0)
  end
  begin
     id 15 
     name upperneck
     direction 0.00627179 0.994526 0.104303   
     length 1.41419   
     axis 0 0 0   XYZ
    dof rx ry rz
    limits (-20.0 45.0)
           (-30.0 30.0)
           (-30.0 30.0)
  end
  begin
     id 16
     name head
     direction -0.00443838 0.999688 0.0245968  
     length 1.50718  
     axis 0 0 0   XYZ
    dof rx ry rz
    limits (-20.0 45.0)
           (-30.0 30.0)
           (-30.0 30.0)
  end
  begin
     id 17 
     name lclavicle
     direction 0.758742 0.650995 -0.0227258  
     length 2.86888  
     axis 0 0 0   XYZ
    dof ry rz
    limits (-20.0 10.0)
           (0.0 20.0)
  end
  begin
     id 18 
     name lhumerus
     direction 1 -4.48962e-011 1.06664e-027   
     length 4.65776   
     axis -180 -30 -90   XYZ
    dof rx ry rz
    limits (-60.0 90.0)
           (-90.0 90.0)
           (-90.0 90.0)
  end
  begin
     id 19
     name lradius
     direction 1 -4.48968e-011 1.40404e-026   
     length 3.55539   
     axis -180 -30 -90   XYZ
    dof rx
    limits (-10.0 170.0)
  end
  begin
     id 20
     name lwrist
     direction 1 -4.48976e-011 3.32647e-026   
     length 1.77769   
     axis -2.20186e-014 90 90   XYZ
    dof ry
    limits (-180.0 0.0)
 end
  begin
     id 21 
     name lhand
     direction 1 -4.48982e-011 6.65293e-026   
     length 0.707264   
     axis -4.24514e-014 90 90   XYZ
    dof rx rz
    limits (-90.0 90.0)
           (-45.0 45.0)
  end
  begin
     id 22 
     name lfingers
     direction 1 -4.48966e-011 1.33059e-025   
     length 0.570215   
     axis -8.49028e-014 90 90   XYZ
    dof rx
    limits (0.0 90.0)
  end
  begin
     id 23
     name lthumb
     direction 0.707107 -6.3493e-011 0.707107   
     length 0.818718   
     axis -90 45 2.85299e-015   XYZ
    dof rx rz
    limits (-45.0 45.0)
           (-45.0 45.0)
  end
  begin
     id 24 
     name rclavicle
     direction -0.870343 0.482028 -0.100759   
     length 3.2251  
     axis 0 0 0   XYZ 
    dof ry rz
    limits (-10.0 20.0)
           (-20.0 0.0)
  end
  begin
     id 25 
     name rhumerus
     direction -1 -4.48974e-011 -9.45849e-028  
     length 4.71925   
     axis -180 30 90   XYZ
    dof rx ry rz
    limits (-90.0 60.0)
           (-90.0 90.0)
           (-90.0 90.0)
  end
  begin
     id 26 
     name rradius
     direction -1 -4.48965e-011 1.17607e-026   
     length 3.5699   
     axis -180 30 90   XYZ
    dof rx
    limits (-10.0 170.0)
  end
  begin
     id 27 
     name rwrist
     direction -1 -4.48968e-011 3.32647e-026   
     length 1.78495   
     axis -2.20186e-014 -90 -90   XYZ
    dof ry
    limits (-180.0 0.0)
  end
  begin
     id 28
     name rhand
     direction -1 -4.48995e-011 6.65293e-026   
     length 0.507757   
     axis -4.24514e-014 -90 -90   XYZ
    dof rx rz
    limits (-90.0 90.0)
           (-45.0 45.0)
  end
  begin
     id 29
     name rfingers
     direction -1 -4.48864e-011 1.33059e-025   
     length 0.409367   
     axis -8.49028e-014 -90 -90   XYZ
    dof rx
    limits (0.0 90.0)
  end
  begin
     id 30
     name rthumb
     direction -0.707107 -6.3494e-011 0.707107   
     length 0.587771   
     axis -90 -45 -2.85299e-015   XYZ
    dof rx rz
    limits (-45.0 45.0)
           (-45.0 45.0)
  end
:hierarchy
  begin
    root lhipjoint rhipjoint lowerback
    lhipjoint lfemur
    lfemur ltibia
    ltibia lfoot
    lfoot ltoes
    rhipjoint rfemur
    rfemur rtibia
    rtibia rfoot
    rfoot rtoes
    lowerback upperback
    upperback thorax
    thorax lowerneck lclavicle rclavicle
    lowerneck upperneck
    upperneck head
    lclavicle lhumerus
    lhumerus lradius
    lradius lwrist
    lwrist lhand lthumb
    lhand lfingers
    rclavicle rhumerus
    rhumerus rradius
    rradius rwrist
    rwrist rhand rthumb
    rhand rfingers
  end

#!OML:ASF E:\Steps\Project 1\Capture day 1\Session 2\Subject.ASF
:FULLY-SPECIFIED
:DEGREES
16
root -1.09998 19.619 20.4644 -153.279 -4.00347 178.495
lowerback -30.5199 -2.66695 -6.64245
upperback -1.63378 -1.95397 -0.01846
thorax 14.3437 -1.60205 2.71802
lowerneck -4.31195 -2.86842 -1.1883
upperneck 12.5622 -5.00703 5.56135
head 4.64072 -2.4144 1.62087
rclavicle 4.42296e-015 -7.95139e-015
rhumerus -38.2647 -20.9057 -75.8066
rradius 30.3445
rwrist -2.04498
rhand -2.50465 -58.819
rfingers 7.12502
rthumb 23.1893 -87.4431
lclavicle 4.42296e-015 -7.95139e-015
lhumerus -31.5034 7.49353 78.7666
lradius 21.2203
lwrist -4.51696
lhand -20.5893 -12.0451
lfingers 7.12502
lthumb 5.77092 17.8563
rfemur -23.271 6.23055 19.6162
rtibia 6.95177
rfoot -18.8703 -3.41142
rtoes -26.0852
lfemur -22.8894 -6.12367 -23.1189
ltibia 6.67864
lfoot -6.95135 -2.66133
ltoes -8.66845
17
root -1.10197 19.6176 20.4641 -153.308 -4.02345 178.537
lowerback -30.5292 -2.64364 -6.58434
upperback -1.61277 -1.93851 -0.0151145
thorax 14.3704 -1.59099 2.69651
lowerneck -4.38781 -2.89286 -1.17595
upperneck 12.6486 -5.04904 5.55231
head 4.68106 -2.43326 1.61173
rclavicle 9.93923e-016 -4.37326e-015
rhumerus -38.2028 -20.8564 -75.8315
rradius 30.3118
rwrist -2.15385
rhand -2.55005 -58.7308
rfingers 7.12502
rthumb 23.1457 -87.3603
lclavicle 9.93923e-016 -4.37326e-015
lhumerus -31.4595 7.68372 78.7118
lradius 21.162
lwrist -4.55895
lhand -20.3985 -12.0438
lfingers 7.12502
lthumb 5.95508 17.8525
rfemur -23.2445 6.10239 19.703
rtibia 6.97994
rfoot -18.9176 -3.28655
rtoes -25.7268
lfemur -22.8428 -6.17845 -23.0696
ltibia 6.65579
lfoot -6.95715 -2.5799
ltoes -8.91532
18
root -1.10366 19.6168 20.4647 -153.325 -4.03351 178.512
lowerback -30.5419 -2.66384 -6.59875
upperback -1.60878 -1.95755 -0.026777
thorax 14.3821 -1.60051 2.68324
lowerneck -4.40776 -2.91886 -1.14694
upperneck 12.6538 -5.08403 5.52874
head 4.68606 -2.44985 1.59735
rclavicle -8.79622e-015 -1.66979e-014
rhumerus -38.145 -20.8231 -75.8597
rradius 30.2308
rwrist -2.11515
rhand -2.48347 -58.7667
rfingers 7.12502
rthumb 23.2096 -87.3882
lclavicle -8.79622e-015 -1.66979e-014
lhumerus -31.4299 7.81019 78.6409
lradius 21.0706
lwrist -4.546
lhand -20.1619 -12.0615
lfingers 7.12502
lthumb 6.18354 17.8283
rfemur -23.2226 6.02094 19.6918
rtibia 6.9809
rfoot -18.9626 -3.22383
rtoes -25.253
lfemur -22.8219 -6.18163 -23.1134
ltibia 6.63852
lfoot -6.89637 -2.63356
ltoes -8.01947
19
root -1.10372 19.6178 20.4688 -153.363 -3.99656 178.501
lowerback -30.4817 -2.68809 -6.62348
upperback -1.61721 -1.98542 -0.0265961
thorax 14.3486 -1.61353 2.68748
lowerneck -4.43814 -2.99254 -1.06755
upperneck 12.7238 -5.19218 5.46043
head 4.713 -2.50322 1.55601
rclavicle -6.60959e-015 -7.15625e-015
rhumerus -38.1342 -20.8061 -75.8835
rradius 30.1648
rwrist -2.08737
rhand -2.55831 -58.3699
rfingers 7.12502
rthumb 23.1378 -87.0005
lclavicle -6.60959e-015 -7.15625e-015
lhumerus -31.4376 7.87706 78.5808
lradius 21.0205
lwrist -4.46008
lhand -20.106 -11.9308
lfingers 7.12502
lthumb 6.23746 17.9573
rfemur -23.2257 6.06886 19.6541
rtibia 7.01752
rfoot -18.9533 -3.26226
rtoes -25.4578
lfemur -22.8496 -6.14355 -23.1356
ltibia 6.73548
lfoot -7.0353 -2.69714
ltoes -7.74029
20
root -1.10334 19.619 20.4727 -153.395 -3.97838 178.54
lowerback -30.4397 -2.68151 -6.60955
upperback -1.60974 -1.98292 -0.0149856
thorax 14.339 -1.61054 2.69524
lowerneck -4.41591 -2.95328 -1.17924
upperneck 12.5656 -5.12357 5.57823
head 4.66385 -2.46727 1.6161
rclavicle 9.49197e-015 1.23246e-014
rhumerus -38.1487 -20.872 -75.8626
rradius 30.1787
rwrist -1.99561
rhand -2.54612 -58.1467
rfingers 7.12502
rthumb 23.1495 -86.7758
lclavicle 9.49197e-015 1.23246e-014
lhumerus -31.4692 7.79827 78.598
lradius 21.0666
lwrist -4.38684
lhand -20.2048 -11.825
lfingers 7.12502
lthumb 6.14207 18.0659
rfemur -23.2373 6.23236 19.6569
rtibia 7.05027
rfoot -18.9174 -3.38265
rtoes -25.6944
lfemur -22.8754 -6.1199 -23.0855
ltibia 6.82439
lfoot -6.99577 -2.62222
ltoes -7.80928
21
root -1.1042 19.619 20.4743 -153.394 -3.9874 178.551
lowerback -30.4436 -2.67866 -6.61225
upperback -1.62304 -1.98201 -0.00436208
thorax 14.3256 -1.61085 2.70855
lowerneck -4.29694 -2.84228 -1.37892
upperneck 12.3686 -4.9474 5.70864
head 4.58446 -2.38385 1.70241
rclavicle 1.35671e-014 2.78299e-014
rhumerus -38.1858 -21.0411 -75.7581
rradius 30.1273
rwrist -1.81789
rhand -2.48207 -57.9605
rfingers 7.12502
rthumb 23.211 -86.5818
lclavicle 1.35671e-014 2.78299e-014
lhumerus -31.5533 7.64936 78.6564
lradius 21.1087
lwrist -4.28119
lhand -20.2364 -11.8895
lfingers 7.12502
lthumb 6.11155 18.0023
rfemur -23.2531 6.29036 19.6571
rtibia 7.07061
rfoot -18.9885 -3.3978
rtoes -25.4182
lfemur -22.8833 -6.16157 -23.0638
ltibia 6.81596
lfoot -6.99853 -2.58224
ltoes -8.31742
22
root -1.10566 19.6192 20.4755 -153.411 -3.98844 178.561
lowerback -30.4147 -2.67459 -6.60174
upperback -1.65412 -1.98842 0.00107808
thorax 14.2771 -1.61315 2.70731
lowerneck -4.17076 -2.76091 -1.48309
upperneck 12.2747 -4.81955 5.7259
head 4.5321 -2.32707 1.73469
rclavicle 1.5207e-014 1.98785e-015
rhumerus -38.2586 -21.063 -75.6974
rradius 30.0818
rwrist -1.81291
rhand -2.36631 -57.8822
rfingers 7.12502
rthumb 23.322 -86.4895
lclavicle 1.5207e-014 1.98785e-015
lhumerus -31.617 7.65991 78.6328
lradius 21.0043
lwrist -4.27252
lhand -20.155 -12.1017
lfingers 7.12502
lthumb 6.19021 17.7878
rfemur -23.2444 6.23436 19.6804
rtibia 7.08917
rfoot -19.0866 -3.35765
rtoes -25.4054
lfemur -22.8714 -6.20618 -23.0503
ltibia 6.8108
lfoot -7.01677 -2.53427
ltoes -8.71024
23
root -1.10562 19.6202 20.4782 -153.434 -4.01643 178.59
lowerback -30.3584 -2.66869 -6.57139
upperback -1.66891 -1.99614 0.00343427
thorax 14.2353 -1.61358 2.69254
lowerneck -4.15487 -2.72756 -1.49406
upperneck 12.2838 -4.76856 5.691
head 4.52962 -2.30425 1.72885
rclavicle 8.34896e-015 2.90226e-014
rhumerus -38.3096 -21.0853 -75.6621
rradius 30.0828
rwrist -1.81786
rhand -2.30879 -57.8563
rfingers 7.12502
rthumb 23.3772 -86.4566
lclavicle 8.34896e-015 2.90226e-014
lhumerus -31.5853 7.76237 78.5645
lradius 20.825
lwrist -4.4263
lhand -20.09 -12.3226
lfingers 7.12502
lthumb 6.25295 17.5651
rfemur -23.2349 6.24796 19.7172
rtibia 7.09884
rfoot -19.1135 -3.39401
rtoes -25.775
lfemur -22.875 -6.21669 -23.0017
ltibia 6.85228
lfoot -7.12108 -2.52346
ltoes -9.24363
24
root -1.10535 19.6205 20.4804 -153.444 -4.04375 178.594
lowerback -30.3266 -2.67712 -6.56927
upperback -1.67732 -2.0109 0.00538374
thorax 14.2129 -1.61946 2.68873
lowerneck -4.18803 -2.71828 -1.48412
upperneck 12.4615 -4.77438 5.65393
head 4.58866 -2.30955 1.71376
rclavicle -1.44119e-014 -1.35174e-014
rhumerus -38.3364 -21.1575 -75.6206
rradius 30.1126
rwrist -1.72448
rhand -2.23616 -57.7417
rfingers 7.12502
rthumb 23.4469 -86.3331
lclavicle -1.44119e-014 -1.35174e-014
lhumerus -31.5823 7.7184 78.5861
lradius 20.7609
lwrist -4.43321
lhand -20.1852 -12.3069
lfingers 7.12502
lthumb 6.161 17.5836
rfemur -23.2246 6.4035 19.6945
rtibia 7.09638
rfoot -19.0695 -3.53713
rtoes -25.6257
lfemur -22.8701 -6.22734 -22.9867
ltibia 6.84941
lfoot -7.20532 -2.54354
ltoes -9.95817
25
root -1.1067 19.6192 20.4809 -153.462 -4.05059 178.614
lowerback -30.3301 -2.69698 -6.54904
upperback -1.67686 -2.04592 0.0251602
thorax 14.219 -1.63431 2.68515
lowerneck -4.08417 -2.61115 -1.58417
upperneck 12.3518 -4.6195 5.73266
head 4.53536 -2.23599 1.76529
rclavicle 1.78906e-015 -1.27222e-014
rhumerus -38.3459 -21.0621 -75.6403
rradius 30.1661
rwrist -1.66723
rhand -2.05337 -57.9754
rfingers 7.12502
rthumb 23.6222 -86.5443
lclavicle 1.78906e-015 -1.27222e-014
lhumerus -31.6184 7.75286 78.5993
lradius 20.7343
lwrist -4.48576
lhand -20.3124 -12.098
lfingers 7.12502
lthumb 6.03821 17.796
rfemur -23.2018 6.49776 19.7048
rtibia 7.10027
rfoot -19.0459 -3.62493
rtoes -25.4132
lfemur -22.8502 -6.25608 -22.966
ltibia 6.8241
lfoot -7.21082 -2.55852
ltoes -10.1778
26
root -1.10792 19.6182 20.4825 -153.452 -4.08923 178.648
lowerback -30.3876 -2.73039 -6.52562
upperback -1.64149 -2.09207 0.0594603
thorax 14.2917 -1.65458 2.68916
lowerneck -4.06126 -2.55502 -1.65189
upperneck 12.1861 -4.51778 5.76294
head 4.47891 -2.18536 1.79273
rclavicle -5.2181e-015 5.96354e-015
rhumerus -38.2505 -20.9475 -75.7036
rradius 30.1568
rwrist -1.77048
rhand -2.20736 -58.0712
rfingers 7.12502
rthumb 23.4745 -86.6591
lclavicle -5.2181e-015 5.96354e-015
lhumerus -31.5533 7.95294 78.5468
lradius 20.658
lwrist -4.63622
lhand -20.2961 -11.9774
lfingers 7.12502
lthumb 6.05394 17.9161
rfemur -23.2448 6.44147 19.7594
rtibia 7.15986
rfoot -19.105 -3.56987
rtoes -25.4155
lfemur -22.906 -6.30217 -22.9096
ltibia 6.86269
lfoot -7.20957 -2.5862
ltoes -9.568
27
root -1.10817 19.619 20.4859 -153.425 -4.16491 178.715
lowerback -30.4514 -2.71596 -6.4676
upperback -1.60587 -2.08308 0.0634855
thorax 14.3601 -1.64726 2.66374
lowerneck -4.15374 -2.6425 -1.57368
upperneck 12.1737 -4.63372 5.72925
head 4.49307 -2.23735 1.76192
rclavicle -1.00883e-014 -7.15625e-015
rhumerus -38.1653 -21.0397 -75.7231
rradius 30.1245
rwrist -1.74064
rhand -2.26776 -58.2178
rfingers 7.12502
rthumb 23.4166 -86.8131
lclavicle -1.00883e-014 -7.15625e-015
lhumerus -31.4828 7.79683 78.5816
lradius 20.6948
lwrist -4.49458
lhand -20.1915 -11.8408
lfingers 7.12502
lthumb 6.15494 18.0498
rfemur -23.3397 6.53192 19.8247
rtibia 7.26627
rfoot -19.175 -3.6314
rtoes -25.4792
lfemur -23.036 -6.31632 -22.8016
ltibia 6.96934
lfoot -7.28375 -2.59266
ltoes -9.59637
28
root -1.108 19.6198 20.489 -153.407 -4.22492 178.808
lowerback -30.4596 -2.67462 -6.37517
upperback -1.62811 -2.06215 0.0460252
thorax 14.3333 -1.63212 2.60332
lowerneck -4.16533 -2.69603 -1.48647
upperneck 12.1967 -4.72104 5.73945
head 4.50394 -2.27696 1.74553
rclavicle -1.82882e-014 -3.18055e-015
rhumerus -38.1593 -21.1837 -75.7173
rradius 30.0261
rwrist -1.63709
rhand -2.31788 -58.3246
rfingers 7.12502
rthumb 23.3685 -86.926
lclavicle -1.82882e-014 -3.18055e-015
lhumerus -31.5245 7.48733 78.6121
lradius 20.7482
lwrist -4.32084
lhand -20.1978 -11.7834
lfingers 7.12502
lthumb 6.14884 18.1074
rfemur -23.4087 6.63825 19.9218
rtibia 7.33492
rfoot -19.2184 -3.72385
rtoes -25.7539
lfemur -23.1567 -6.27884 -22.6753
ltibia 7.08502
lfoot -7.34188 -2.61146
ltoes -9.64815
29
root -1.10779 19.6188 20.4902 -153.413 -4.27536 178.873
lowerback -30.4363 -2.67425 -6.31577
upperback -1.65866 -2.08933 0.0510105
thorax 14.289 -1.6407 2.56672
lowerneck -4.12863 -2.68134 -1.46589
upperneck 12.2818 -4.71914 5.74941
head 4.52346 -2.27767 1.74524
rclavicle 1.14301e-014 0
rhumerus -38.1495 -21.2546 -75.6971
rradius 29.8962
rwrist -1.5414
rhand -2.25448 -58.2268
rfingers 7.12502
rthumb 23.4293 -86.8205
lclavicle 1.14301e-014 0
lhumerus -31.5563 7.47994 78.5594
lradius 20.6774
lwrist -4.33148
lhand -20.3309 -11.9224
lfingers 7.12502
lthumb 6.0204 17.9721
rfemur -23.4158 6.59668 20.0224
rtibia 7.35728
rfoot -19.2476 -3.69975
rtoes -25.6689
lfemur -23.2033 -6.24627 -22.5922
ltibia 7.17171
lfoot -7.28536 -2.65857
ltoes -9.25337
30
root -1.10838 19.6185 20.4905 -153.453 -4.31528 178.874
lowerback -30.4081 -2.70199 -6.32738
upperback -1.64885 -2.12226 0.066483
thorax 14.2921 -1.65547 2.57752
lowerneck -4.05676 -2.68508 -1.44682
upperneck 12.3788 -4.74009 5.72388
head 4.54072 -2.29255 1.73353
rclavicle 5.31749e-015 3.18055e-014
rhumerus -38.0888 -21.238 -75.7029
rradius 29.8407
rwrist -1.55951
rhand -2.1579 -58.1468
rfingers 7.12502
rthumb 23.5219 -86.7286
lclavicle 5.31749e-015 3.18055e-014
lhumerus -31.5271 7.59771 78.5276
lradius 20.589
lwrist -4.3871
lhand -20.3186 -11.9616
lfingers 7.12502
lthumb 6.03223 17.9325
rfemur -23.3748 6.55793 20.0439
rtibia 7.37958
rfoot -19.3346 -3.70886
rtoes -25.2121
lfemur -23.1908 -6.28459 -22.5851
ltibia 7.25225
lfoot -7.252 -2.6915
ltoes -9.70368
